<svg xmlns="http://www.w3.org/2000/svg" width="415.606" height="816.785" viewBox="0 0 415.606 816.785"><g transform="translate(-87.472 -2714)"><path d="M2679.665,1304.142s-15.99,12.617-18.433,17.936-8.147,24.9-8.147,24.9,4.073.725,8.147-7.735,17.514-7.736,21.995-12.33,9.691-18.053,9.691-18.053Z" transform="translate(-2565.613 1821.535)" fill="#ffb27d"/><g transform="translate(113 2714)" style="isolation:isolate"><g transform="translate(0)"><path d="M2353.735,1088.872c0-.5-7.3-15.6-4.981-16.767s6.488-.985,6.974,1.661S2353.735,1088.872,2353.735,1088.872Z" transform="translate(-2079.676 -863.616)" fill="#ffb27d"/><path d="M2563.212,875.853s-42.835-51.476-65.513-18.538c0,0-16.92,7.019-23.039,35.817-6.243,29.381,13.3,51.715,23.4,46.2,6.478-3.539,11.385,7.8,11.385,7.8Z" transform="translate(-2392.355 -834.863)" fill="#233862"/><path d="M2380.591,1168.571c34.057-12.546,66.857-70.825,66.857-70.825l-10.741-7.518c-8.945,13.086-49.191,38.212-49.191,38.212-.919-11.026-2.252-21.033-3.9-30.095-11.174-61.592-36.733-79.837-43.594-83.71a15.4,15.4,0,0,0-1.73-.875s.022.453.076,1.311c.1,1.855.316,5.589.675,10.709C2341.7,1063.911,2352.134,1179.065,2380.591,1168.571Z" transform="translate(-2161.452 -858.654)" fill="#ffb27d"/><path d="M2590.362,850.648s-5.76-23.038-39.6-15.839c0,0,16.2-2.039,20.638,4.2,0,0-12.839-5.879-20.877-.96s-9.359,21.478-8.159,26.517,10.078,20.039,15.958,20.039,12.839-5.16,12.839-5.16Z" transform="translate(-2479.276 -833.415)" fill="#233862"/><path d="M2444.417,1224.573c16.826-37.732,24.875-48.4,25.156-60.274.222-9.388-4.406-19.518-13.4-44.356a92.629,92.629,0,0,1-4.478-17.956c-7.113-47.883,20.579-99.647,37.787-103.174,4.79-1.265,12.906-18.56,12.807-46.428l2.155.425,36.238,7.176s-.825,11.4-.849,22.148c-.025,8.954,1.468,9.031,2.543,11.507,2.914.426,8.149,3.391,8.149,3.391s26.217,45.963,28.758,84.992-24.2,55.982.2,133.973C2604.4,1295.652,2435.125,1245.421,2444.417,1224.573Z" transform="translate(-2384.862 -846.772)" fill="#ffb27d"/><path d="M2526.816,960.04s-.825,11.4-.848,22.148c-20.28-.572-31-19.07-35.389-29.323Z" transform="translate(-2371.674 -846.826)" fill="#e8945b"/><path d="M2478.359,939s-10.626-16.791-13.177-31.149c-1.821-10.25,3.4-48.246,41.582-42.774a51.861,51.861,0,0,1,21.513,8.133c8.29,5.6,20.255,17.686,6.877,50.843l-3.475,11.2Z" transform="translate(-2363.222 -836.91)" fill="#233862"/><path d="M2513.5,962.168s-47.98.791-48.012-29.1-6.247-49.912,24.384-51.68,36.6,9.628,39.034,19.6S2525.979,961.191,2513.5,962.168Z" transform="translate(-2351.814 -838.781)" fill="#ffb27d"/><path d="M2547.152,879.823s-13.137,35.062-33.3,40.246-28.9-.217-28.9-.217a57.1,57.1,0,0,0,18.673-33.728S2537.242,863.134,2547.152,879.823Z" transform="translate(-2386.716 -837.943)" fill="#233862"/><path d="M2461.252,883.074s9.811,7.828,12.2,15.438,3.468,23.277,8.035,22.745c0,0,9.9-23.832-1.226-37.313C2468.469,869.649,2461.252,883.074,2461.252,883.074Z" transform="translate(-2305.267 -838.349)" fill="#233862"/><path d="M2452.388,1622.327a474.207,474.207,0,0,0,30.242,84.83l15.822-1.1s-7.76-36.911-7.315-86.784c.315-34.867,4.626-76.074,18.4-115.419,47.342-135.2,39.689-233.606,39.689-233.606l-89.024,10.412-4.148.486c-.371,40.887-1.426,96.4-2.349,139.807-.818,39.039-1.535,68.282-1.535,68.282C2435.057,1526.1,2441.273,1578.134,2452.388,1622.327Z" transform="translate(-2351.178 -903.74)" fill="#163560"/><path d="M2545.527,1270.408l14.4,4.319s47.515-78.836,51.834-99.348c1.41-6.679,4.864-20.043,8.9-35.016,8.344-31.008,19.111-68.951,19.111-68.951l3.546-15.359,12.094-52.38s-23.159,2.367-36.705,8.031c-4.485,1.87-7.907,4.106-9.1,6.727-9.952,21.881-19.886,77.105-26.871,116.5-3.891,21.956-6.859,39-8.41,42.609C2570.006,1187.615,2556.806,1243.052,2545.527,1270.408Z" transform="translate(-2545.527 -858.203)" fill="#ffb27d"/><path d="M2491.719,1612.288c5.119,54.63,27.658,89.955,27.658,89.955l7.558,5.5s7.154-38.49,12.215-84.28c4.824-43.524,11.436-89.578,18.915-103.636,29.688-55.751,38.626-266.215,38.626-266.215l-90.264-4.477c-9.077,15.261-13.035,40.292-13.974,68.753-2.375,71.829,14.51,165.489,17.033,179.035a.058.058,0,0,0,.009.033,4.712,4.712,0,0,1-.6,3.025C2490.943,1535.53,2488.347,1576.2,2491.719,1612.288Z" transform="translate(-2439.945 -901.369)" fill="#1c468a"/><path d="M2521.363,883.924s-9.359,36.717-34.8,48.476c0,0,25.439-22.558,27.6-46.8S2521.363,883.924,2521.363,883.924Z" transform="translate(-2362.782 -838.014)" fill="#233862"/><path d="M2443.872,1267.743c-.156,3.042.008-4.526.56-2.786,1.921,6.043,8.517,8.8,24.461,7.147,9.746-1.013,14.091-17.346,16.03-31.28q8.777,29.9,24.643,33.474c15.458,3.438,93.437,12.92,98.541-24.149,5.615-40.77-11.2-112.961-12.12-151.884a192.548,192.548,0,0,0,2.827-36.071c-.649-27.727-8.788-43.268-15.046-49.526-1.772-1.36-3.544-2.209-10.66-3.429-3.635-.618-8.674-1.335-15.814-2.275a26.669,26.669,0,0,0-2.847-.221c1.32,2.359,18.982,29.1,17.6,35.979-1.442,7.2-64.078.716-68.4-3.24S2492.5,1005.2,2492.5,1005.2s-22.18,2.424-33.03,10.315l.115.14a9.166,9.166,0,0,0-2.852,3c-11.575,22.039-23.135,77.658-31.264,117.331,19.705,10.859,36.919,7.627,42.262,6.192C2460.748,1187.868,2444.91,1246.923,2443.872,1267.743Z" transform="translate(-2392.788 -858.442)" fill="#f99746"/><path d="M2320.948,1095.077c-.005-1.483-1.242-22.914,2.573-27.415s11.6-10.9,14.054-10.708,12.031,12.928,9.151,22.684-15.036,22.957-15.036,22.957Z" transform="translate(-2046.693 -861.841)" fill="#ffb27d"/><g transform="translate(255.767 162.793)"><path d="M2329.756,1064.666l22.209,6.656a1.393,1.393,0,0,0,1.735-.933l12.692-42.348a1.393,1.393,0,0,0-.936-1.734l-22.208-6.657a1.393,1.393,0,0,0-1.734.935l-12.692,42.348A1.392,1.392,0,0,0,2329.756,1064.666Z" transform="translate(-2328.764 -1019.591)" fill="#f1a34f"/><path d="M2325.484,1066.608l20.145,6.039a2.47,2.47,0,0,0,3.076-1.657l12.073-40.283a2.47,2.47,0,0,0-1.657-3.076l-20.145-6.038a2.471,2.471,0,0,0-3.075,1.658l-12.074,40.283A2.47,2.47,0,0,0,2325.484,1066.608Z" transform="translate(-2318.72 -1019.803)" fill="#d86713"/></g><path d="M2555.27,1658.216c5.12,54.631,27.658,89.957,27.658,89.957l7.7,7.006s7.016-40,12.078-85.791C2597.368,1669.775,2573.854,1670.633,2555.27,1658.216Z" transform="translate(-2503.079 -947.297)" fill="#ffb27d"/><path d="M2499.275,1666.467a474.293,474.293,0,0,0,30.242,84.83l15.822-1.1s-7.757-36.912-7.313-86.784C2532.657,1666.121,2521.579,1668.867,2499.275,1666.467Z" transform="translate(-2397.523 -947.881)" fill="#d9935c"/><g transform="translate(113.778 780.068)"><path d="M2455.491,1772.726h10.1c3.384-.532,5.882-1.512,9.352-1.965,5.271-.692,7.7,1.468,8.178,1.965a1.246,1.246,0,0,1,.093.1h42.91c1.077-1.542.043-5.111-.972-7.74a6.109,6.109,0,0,0-4.017-3.672c-4.552-1.317-13.521-2.49-21.736-9.927-4.621-4.177-22.318-15.357-22.318-15.357l-.094-.021c-.389.007-2.24.576-10.287,7.371-4.161,3.507-11.253-4.952-11.253-4.952a10.076,10.076,0,0,0-2.325,3.154,10.644,10.644,0,0,0-.922,6.587c.641,3.866-1.427,11.051-3.074,15.91-1,2.945-1.843,5.033-1.843,5.033S2446.8,1771.64,2455.491,1772.726Z" transform="translate(-2447.279 -1736.11)" fill="#233862"/><path d="M2503.04,1741.682c2.411,1.7,7.5,5.046,10.879,5.485,4.556.6,13.08-11.037,13.08-11.037l-.094-.021c-.388.007-2.239.576-10.286,7.371-4.162,3.507-11.252-4.952-11.252-4.952A10.083,10.083,0,0,0,2503.04,1741.682Z" transform="translate(-2497.197 -1736.11)" fill="#466aa5"/><path d="M2455.491,1776.276h10.1c3.384-.532,5.882-1.513,9.352-1.966,5.271-.691,7.7,1.469,8.178,1.966a1.3,1.3,0,0,1,.093.1h42.91c1.077-1.541.043-5.111-.972-7.74-1.3-1.159-1.672,5.033-2.391,6.019s-35,.36-36.983-1.08-7.92-3.959-16.2-1.979c-7.207,1.72-17.825-2.693-20.454-3.866-1,2.944-1.843,5.032-1.843,5.032S2446.8,1775.189,2455.491,1776.276Z" transform="translate(-2447.279 -1739.66)" fill="#466aa5"/></g><g transform="translate(61.715 780.068)"><path d="M2516.21,1772.726h10.1c3.383-.532,5.881-1.512,9.351-1.965,5.27-.692,7.7,1.468,8.179,1.965a1.29,1.29,0,0,1,.093.1h42.909c1.08-1.542.042-5.111-.971-7.74a6.111,6.111,0,0,0-4.019-3.672c-4.55-1.317-13.52-2.49-21.734-9.927-4.621-4.177-22.318-15.357-22.318-15.357l-.093-.021c-.389.007-2.239.576-10.288,7.371-4.163,3.507-11.252-4.952-11.252-4.952a10.067,10.067,0,0,0-2.326,3.154,10.656,10.656,0,0,0-.922,6.587c.642,3.866-1.425,11.051-3.073,15.91-1,2.945-1.843,5.033-1.843,5.033S2507.521,1771.64,2516.21,1772.726Z" transform="translate(-2507.998 -1736.11)" fill="#233862"/><path d="M2563.759,1741.682c2.413,1.7,7.5,5.046,10.881,5.485,4.555.6,13.08-11.037,13.08-11.037l-.092-.021c-.391.007-2.241.576-10.289,7.371-4.162,3.507-11.253-4.952-11.253-4.952A10.1,10.1,0,0,0,2563.759,1741.682Z" transform="translate(-2557.916 -1736.11)" fill="#466aa5"/><path d="M2516.21,1776.276h10.1c3.383-.532,5.881-1.513,9.351-1.966,5.27-.691,7.7,1.469,8.179,1.966a1.349,1.349,0,0,1,.093.1h42.909c1.08-1.541.042-5.111-.971-7.74-1.3-1.159-1.67,5.033-2.391,6.019s-35,.36-36.983-1.08-7.918-3.959-16.2-1.979c-7.208,1.72-17.826-2.693-20.454-3.866-1,2.944-1.843,5.032-1.843,5.032S2507.521,1775.189,2516.21,1776.276Z" transform="translate(-2507.998 -1739.66)" fill="#466aa5"/></g><path d="M2542.866,1269.632c10.71-3.579,24.454-13.093,40.96-34.423,43.7-56.476,3.71-122.846-1.649-124.083s-15.451,42.938-15.451,42.938C2559.742,1199.758,2543.9,1248.813,2542.866,1269.632Z" transform="translate(-2493.398 -872.311)" fill="#ef7e29"/><path d="M2413.611,1012.184s29.924,15.057,39.89,75.823c0,0-9.8,13.433-23.6,17.4a27.515,27.515,0,0,1-6.144,1.052C2406.8,1107.359,2413.611,1012.184,2413.611,1012.184Z" transform="translate(-2230.789 -858.026)" fill="#f99746"/><path d="M2344.5,1057.105s-9.248-14.23-11.507-13.437c-3.226,1.129,8.385,19.186,8.385,19.186s-8.6-13.493-9.947-12.478c-3.062,2.311,1.812,10.79,6.645,17.289,0,0-8.651-7.923-8.933-6.5-.987,5,9.5,17.109,9.5,17.109l5.859-13.386Z" transform="translate(-2050.332 -861.96)" fill="#ffb27d"/><path d="M2328.2,1069.554c-.446-1.741-2.7-35.721-3.669-32.5s-3.267,21.041-3.267,21.041Z" transform="translate(-2028.095 -855.026)" fill="#ffb27d"/><path d="M2474.667,952.137s.831,3.522,9.591,2.978c0,0,7.356-.454,7.13-4.325C2491.388,950.79,2484.256,948.037,2474.667,952.137Z" transform="translate(-2322.792 -846.491)" fill="#fff"/></g></g><g transform="translate(427.207 2878.363)"><path d="M1756.579,503.25l9.091,34.779a2.893,2.893,0,0,1-2.061,3.52L1702.6,557.5a2.893,2.893,0,0,1-3.52-2.061l-9.091-34.779a2.893,2.893,0,0,1,2.061-3.52l61.012-15.949A2.893,2.893,0,0,1,1756.579,503.25Z" transform="translate(-1689.892 -501.095)" fill="#00922c"/><g transform="translate(4.813 5.475)"><path d="M1796.847,810.061l-16.261,4.25a1.3,1.3,0,0,1-1.578-.924l-.041-.156a1.3,1.3,0,0,1,.924-1.578l16.261-4.251a1.3,1.3,0,0,1,1.578.924l.041.156A1.3,1.3,0,0,1,1796.847,810.061Z" transform="translate(-1771.798 -771.761)" fill="#cde0fb"/><path d="M1956.625,768.294l-16.261,4.251a1.3,1.3,0,0,1-1.578-.924l-.041-.156a1.3,1.3,0,0,1,.924-1.578l16.261-4.251a1.3,1.3,0,0,1,1.578.924l.041.156A1.3,1.3,0,0,1,1956.625,768.294Z" transform="translate(-1910.147 -735.596)" fill="#cde0fb"/><g transform="translate(24.899 9.545)"><path d="M1914.6,680.193a3.124,3.124,0,0,1,.071,1.538,1.417,1.417,0,0,1-2.41.63,3.719,3.719,0,0,1-.766-2.907,1.426,1.426,0,0,1,2.421-.633A3.14,3.14,0,0,1,1914.6,680.193Zm-.747.192a3.1,3.1,0,0,0-.371-.9q-.344-.518-.786-.4t-.5.731a3,3,0,0,0,.114.977q.4,1.517,1.171,1.315.447-.117.486-.741A3.086,3.086,0,0,0,1913.857,680.385Z" transform="translate(-1911.436 -669.61)" fill="#cde0fb"/><path d="M1939.5,673.686a3.128,3.128,0,0,1,.071,1.538,1.417,1.417,0,0,1-2.409.63,3.719,3.719,0,0,1-.766-2.907,1.426,1.426,0,0,1,2.421-.633A3.141,3.141,0,0,1,1939.5,673.686Zm-.746.192a3.1,3.1,0,0,0-.371-.9q-.344-.518-.785-.4t-.5.731a3,3,0,0,0,.115.977q.4,1.517,1.171,1.315.448-.117.487-.741A3.1,3.1,0,0,0,1938.752,673.878Z" transform="translate(-1932.992 -663.976)" fill="#cde0fb"/><path d="M1977.226,663.824a3.13,3.13,0,0,1,.071,1.538,1.417,1.417,0,0,1-2.409.63,3.718,3.718,0,0,1-.766-2.907,1.427,1.427,0,0,1,2.421-.633A3.142,3.142,0,0,1,1977.226,663.824Zm-.747.192a3.093,3.093,0,0,0-.371-.9q-.344-.518-.785-.4t-.5.731a2.993,2.993,0,0,0,.114.977q.4,1.517,1.171,1.315.447-.117.487-.741A3.094,3.094,0,0,0,1976.48,664.016Z" transform="translate(-1965.66 -655.436)" fill="#cde0fb"/><path d="M2002.121,657.316a3.128,3.128,0,0,1,.071,1.538,1.417,1.417,0,0,1-2.409.63,3.718,3.718,0,0,1-.766-2.907,1.427,1.427,0,0,1,2.421-.633A3.141,3.141,0,0,1,2002.121,657.316Zm-.746.192a3.105,3.105,0,0,0-.371-.9q-.344-.518-.786-.4t-.5.731a2.986,2.986,0,0,0,.114.977q.4,1.518,1.171,1.315.448-.117.487-.741A3.092,3.092,0,0,0,2001.375,657.508Z" transform="translate(-1987.216 -649.801)" fill="#cde0fb"/><path d="M2027.017,650.808a3.131,3.131,0,0,1,.071,1.538,1.417,1.417,0,0,1-2.409.63,3.72,3.72,0,0,1-.766-2.907,1.427,1.427,0,0,1,2.421-.633A3.144,3.144,0,0,1,2027.017,650.808Zm-.747.192a3.1,3.1,0,0,0-.371-.9q-.344-.518-.786-.4t-.5.731a3,3,0,0,0,.115.977q.4,1.517,1.171,1.315.448-.117.486-.741A3.086,3.086,0,0,0,2026.27,651Z" transform="translate(-2008.772 -644.167)" fill="#cde0fb"/><path d="M2051.911,644.3a3.129,3.129,0,0,1,.071,1.538,1.417,1.417,0,0,1-2.41.63,3.718,3.718,0,0,1-.766-2.907,1.427,1.427,0,0,1,2.421-.633A3.138,3.138,0,0,1,2051.911,644.3Zm-.747.192a3.1,3.1,0,0,0-.371-.9q-.344-.518-.785-.4t-.5.731a2.994,2.994,0,0,0,.115.977q.4,1.517,1.171,1.315.448-.117.487-.741A3.083,3.083,0,0,0,2051.165,644.493Z" transform="translate(-2030.328 -638.532)" fill="#cde0fb"/><path d="M2089.639,634.438a3.126,3.126,0,0,1,.071,1.538,1.417,1.417,0,0,1-2.409.63,3.719,3.719,0,0,1-.766-2.907,1.426,1.426,0,0,1,2.421-.633A3.142,3.142,0,0,1,2089.639,634.438Zm-.747.192a3.1,3.1,0,0,0-.371-.9q-.344-.518-.786-.4t-.5.731a3,3,0,0,0,.114.977q.4,1.517,1.171,1.315.448-.117.487-.741A3.091,3.091,0,0,0,2088.892,634.63Z" transform="translate(-2062.996 -629.992)" fill="#cde0fb"/><path d="M2114.534,627.931a3.127,3.127,0,0,1,.071,1.538,1.417,1.417,0,0,1-2.41.63,3.719,3.719,0,0,1-.766-2.907,1.427,1.427,0,0,1,2.421-.633A3.144,3.144,0,0,1,2114.534,627.931Zm-.747.192a3.1,3.1,0,0,0-.371-.9q-.344-.518-.785-.4t-.5.731a3,3,0,0,0,.115.977q.4,1.518,1.171,1.315.448-.117.487-.741A3.1,3.1,0,0,0,2113.788,628.123Z" transform="translate(-2084.553 -624.357)" fill="#cde0fb"/><path d="M2139.429,621.423a3.129,3.129,0,0,1,.071,1.538,1.417,1.417,0,0,1-2.409.63,3.72,3.72,0,0,1-.766-2.907,1.427,1.427,0,0,1,2.421-.633A3.141,3.141,0,0,1,2139.429,621.423Zm-.747.192a3.1,3.1,0,0,0-.371-.9q-.344-.518-.786-.4t-.5.731a3,3,0,0,0,.115.977q.4,1.517,1.171,1.315.448-.117.487-.741A3.089,3.089,0,0,0,2138.682,621.615Z" transform="translate(-2106.108 -618.722)" fill="#cde0fb"/><path d="M2164.324,614.916a3.129,3.129,0,0,1,.071,1.538,1.417,1.417,0,0,1-2.409.63,3.72,3.72,0,0,1-.766-2.907,1.427,1.427,0,0,1,2.421-.633A3.142,3.142,0,0,1,2164.324,614.916Zm-.747.192a3.1,3.1,0,0,0-.371-.9q-.344-.518-.785-.4t-.5.731a2.993,2.993,0,0,0,.115.977q.4,1.517,1.171,1.315.448-.117.486-.741A3.1,3.1,0,0,0,2163.578,615.108Z" transform="translate(-2127.665 -613.088)" fill="#cde0fb"/></g><path d="M1743.315,607.28l-15.913,4.16a1.3,1.3,0,0,1-1.578-.924h0a1.3,1.3,0,0,1,.924-1.578l15.913-4.16a1.3,1.3,0,0,1,1.578.924h0A1.3,1.3,0,0,1,1743.315,607.28Z" transform="translate(-1725.782 -596.312)" fill="#cde0fb"/><g transform="translate(54.901)"><g transform="translate(0 2.617)"><path d="M2136.269,562.564a1.978,1.978,0,0,0-.736-1.091.212.212,0,0,0-.31.065l-.054.1a.21.21,0,0,0,.054.272,1.452,1.452,0,0,1,.457,1.746.21.21,0,0,0,.086.264l.094.056a.212.212,0,0,0,.3-.1A1.982,1.982,0,0,0,2136.269,562.564Z" transform="translate(-2135.139 -561.431)" fill="#cde0fb"/></g><g transform="translate(0.556 1.689)"><path d="M2140.888,556.3a3.033,3.033,0,0,0-1.247-1.757.21.21,0,0,0-.3.072l-.031.054a.212.212,0,0,0,.067.281,2.561,2.561,0,0,1,.854,3.265.212.212,0,0,0,.079.278l.053.032a.211.211,0,0,0,.3-.083A3.036,3.036,0,0,0,2140.888,556.3Z" transform="translate(-2139.283 -554.511)" fill="#cde0fb"/></g><g transform="translate(1.052 0.877)"><path d="M2145,550.825a3.972,3.972,0,0,0-1.686-2.334.212.212,0,0,0-.3.073h0a.211.211,0,0,0,.068.282,3.556,3.556,0,0,1,1.213,4.642.211.211,0,0,0,.078.279h0a.211.211,0,0,0,.3-.082A3.973,3.973,0,0,0,2145,550.825Z" transform="translate(-2142.984 -548.458)" fill="#cde0fb"/></g><g transform="translate(1.502)"><path d="M2148.878,544.906a4.979,4.979,0,0,0-2.162-2.955.212.212,0,0,0-.3.073l-.053.093a.211.211,0,0,0,.07.283,4.462,4.462,0,0,1,1.539,5.887.211.211,0,0,0,.078.281l.092.055a.212.212,0,0,0,.3-.082A4.978,4.978,0,0,0,2148.878,544.906Z" transform="translate(-2146.337 -541.918)" fill="#cde0fb"/></g></g><g transform="translate(8.221 42.093)"><path d="M1788.607,874.495a1.512,1.512,0,0,1,.034.742.683.683,0,0,1-1.162.3,1.793,1.793,0,0,1-.37-1.4.688.688,0,0,1,1.168-.305A1.518,1.518,0,0,1,1788.607,874.495Zm-.36.093a1.493,1.493,0,0,0-.179-.436q-.166-.25-.379-.194t-.239.353a1.436,1.436,0,0,0,.055.471q.191.732.565.634.216-.056.235-.358A1.489,1.489,0,0,0,1788.247,874.588Z" transform="translate(-1787.079 -871.221)" fill="#cde0fb"/><path d="M1800.615,871.356a1.508,1.508,0,0,1,.034.742.683.683,0,0,1-1.162.3,1.794,1.794,0,0,1-.369-1.4.688.688,0,0,1,1.167-.305A1.515,1.515,0,0,1,1800.615,871.356Zm-.36.093a1.5,1.5,0,0,0-.179-.436q-.166-.25-.379-.194t-.239.353a1.439,1.439,0,0,0,.055.471q.191.732.565.634.216-.056.235-.358A1.5,1.5,0,0,0,1800.255,871.449Z" transform="translate(-1797.476 -868.503)" fill="#cde0fb"/><path d="M1813.194,867.214a.235.235,0,0,1,0,.1l-.386,1.955q-.027.144-.127.169a.148.148,0,0,1-.115-.014.142.142,0,0,1-.07-.091.23.23,0,0,1,0-.106l.391-1.953q.028-.141.125-.166a.158.158,0,0,1,.116.011A.135.135,0,0,1,1813.194,867.214Z" transform="translate(-1809.078 -865.586)" fill="#cde0fb"/><path d="M1820.832,866.071a1.509,1.509,0,0,1,.034.742.683.683,0,0,1-1.162.3,1.795,1.795,0,0,1-.37-1.4.688.688,0,0,1,1.168-.305A1.515,1.515,0,0,1,1820.832,866.071Zm-.36.093a1.505,1.505,0,0,0-.179-.436q-.166-.25-.379-.194t-.239.353a1.452,1.452,0,0,0,.055.471q.192.732.565.634.216-.056.235-.358A1.494,1.494,0,0,0,1820.472,866.163Z" transform="translate(-1814.982 -863.926)" fill="#cde0fb"/><path d="M1832.84,862.932a1.51,1.51,0,0,1,.034.742.683.683,0,0,1-1.162.3,1.794,1.794,0,0,1-.37-1.4.688.688,0,0,1,1.168-.305A1.517,1.517,0,0,1,1832.84,862.932Zm-.36.093a1.5,1.5,0,0,0-.179-.436q-.166-.25-.379-.194t-.239.353a1.446,1.446,0,0,0,.055.471q.191.732.565.634.216-.056.235-.357A1.5,1.5,0,0,0,1832.48,863.025Z" transform="translate(-1825.38 -861.208)" fill="#cde0fb"/><path d="M1844.847,859.793a1.511,1.511,0,0,1,.034.742.683.683,0,0,1-1.162.3,1.794,1.794,0,0,1-.37-1.4.688.688,0,0,1,1.168-.305A1.521,1.521,0,0,1,1844.847,859.793Zm-.36.093a1.5,1.5,0,0,0-.179-.436q-.166-.25-.379-.194t-.239.353a1.443,1.443,0,0,0,.055.471q.191.732.565.634.216-.056.234-.358A1.492,1.492,0,0,0,1844.487,859.886Z" transform="translate(-1835.777 -858.491)" fill="#cde0fb"/><path d="M1856.854,856.655a1.51,1.51,0,0,1,.034.742.683.683,0,0,1-1.162.3,1.794,1.794,0,0,1-.37-1.4.688.688,0,0,1,1.168-.305A1.518,1.518,0,0,1,1856.854,856.655Zm-.36.093a1.5,1.5,0,0,0-.179-.436q-.166-.25-.379-.194t-.239.353a1.444,1.444,0,0,0,.055.471q.191.732.565.634.216-.056.235-.358A1.488,1.488,0,0,0,1856.494,856.747Z" transform="translate(-1846.173 -855.773)" fill="#cde0fb"/></g></g></g><g transform="translate(376.915 2835.246)"><path d="M1820.808,335.44a6.513,6.513,0,0,0-6.514-6.513h-74.261a7.517,7.517,0,0,0-7.518,7.518v15.442a8.843,8.843,0,0,0,2.21,5.845l-2.21,10.1,12.744-7.061h68.669a6.879,6.879,0,0,0,6.879-6.879Z" transform="translate(-1732.516 -328.927)" fill="#fff"/><g transform="translate(7.901 9.402)"><path d="M1767.237,363.085l1.859,3.767,4.157.6-3.008,2.932.71,4.14-3.718-1.955-3.718,1.955.71-4.14-3.008-2.932,4.157-.6Z" transform="translate(-1761.221 -363.085)" fill="#ffb93e"/><path d="M1824.21,363.085l1.859,3.767,4.157.6-3.008,2.932.71,4.14-3.718-1.955-3.718,1.955.71-4.14-3.008-2.932,4.157-.6Z" transform="translate(-1802.512 -363.085)" fill="#ffb93e"/><path d="M1881.184,363.085l1.859,3.767,4.157.6-3.008,2.932.71,4.14-3.718-1.955-3.718,1.955.71-4.14-3.008-2.932,4.157-.6Z" transform="translate(-1843.804 -363.085)" fill="#ffb93e"/><path d="M1938.158,363.085l1.859,3.767,4.157.6-3.008,2.932.71,4.14-3.718-1.955-3.718,1.955.71-4.14-3.008-2.932,4.157-.6Z" transform="translate(-1885.095 -363.085)" fill="#ffb93e"/><path d="M1995.131,363.085l1.859,3.767,4.157.6-3.008,2.932.71,4.14-3.718-1.955-3.718,1.955.71-4.14-3.008-2.932,4.157-.6Z" transform="translate(-1926.387 -363.085)" fill="#ffb93e"/></g></g><g transform="translate(379.015 2823.185)"><path d="M1493.227,1312.406a9.917,9.917,0,1,1,9.917-9.917A9.928,9.928,0,0,1,1493.227,1312.406Zm0-19.036a9.12,9.12,0,1,0,9.12,9.12A9.13,9.13,0,0,0,1493.227,1293.37Z" transform="translate(-1483.31 -1292.573)" fill="#69f084"/><path d="M1510.077,1321.229l5.956,7.75,4.692-11.49-5.584,5.952Z" transform="translate(-1505.928 -1313.627)" fill="#46f976"/></g></g></svg>