<svg xmlns="http://www.w3.org/2000/svg" width="20" height="21.539" viewBox="0 0 20 21.539"><path d="M22.87,10.8c-.192-.192-7.611-7.76-7.611-7.76a2.641,2.641,0,0,0-3.769,0S4.106,10.567,3.88,10.8a1.932,1.932,0,0,0-.5,1.255V22.25a1.543,1.543,0,0,0,1.538,1.538H21.837a1.543,1.543,0,0,0,1.538-1.538V12.01A1.85,1.85,0,0,0,22.87,10.8Zm-.933,2.034-3.9,4.077a.093.093,0,0,0,0,.135l3.62,3.856a.624.624,0,0,1,0,.885.627.627,0,0,1-.885,0l-7.26-7.75a.189.189,0,0,0-.279,0L5.981,21.779a.627.627,0,0,1-.885,0,.624.624,0,0,1,0-.885l3.62-3.856a.1.1,0,0,0,0-.135L4.8,12.827a1.1,1.1,0,0,1,.774-1.721h15.6A1.135,1.135,0,0,1,21.938,12.832Z" transform="translate(-3.375 -2.25)" fill="#3086f0"/></svg>